<?xml version="1.0" encoding="utf-8"?>
<!-- Generator: Adobe Illustrator 15.1.0, SVG Export Plug-In . SVG Version: 6.00 Build 0)  -->
<!DOCTYPE svg PUBLIC "-//W3C//DTD SVG 1.1//EN" "http://www.w3.org/Graphics/SVG/1.1/DTD/svg11.dtd">
<svg version="1.1" id="Layer_1" xmlns="http://www.w3.org/2000/svg" xmlns:xlink="http://www.w3.org/1999/xlink" x="0px" y="0px"
	 width="44px" height="46px" viewBox="0 0 44 46" enable-background="new 0 0 44 46" xml:space="preserve">
<g>
	<circle opacity="0.8" fill="#4A8C47" cx="22" cy="24" r="22"/>
	<circle fill="#FFFFFF" cx="22" cy="22" r="22"/>
	<path fill="#66BE61" d="M44,22c0,12.15-9.85,22-22,22S0,34.15,0,22S9.85,0,22,0S44,9.85,44,22z M36.171,16.32
		c0-1.056-0.856-1.912-1.912-1.912H9.741c-1.056,0-1.912,0.856-1.912,1.912l0,0c0,1.056,0.856,1.912,1.912,1.912h24.518
		C35.314,18.232,36.171,17.376,36.171,16.32L36.171,16.32z M36.171,27.68c0-1.056-0.856-1.912-1.912-1.912H9.741
		c-1.056,0-1.912,0.856-1.912,1.912l0,0c0,1.056,0.856,1.911,1.912,1.911h24.518C35.314,29.591,36.171,28.735,36.171,27.68
		L36.171,27.68z"/>
</g>
</svg>
