<?xml version="1.0" encoding="utf-8"?>
<!-- Generator: Adobe Illustrator 15.1.0, SVG Export Plug-In . SVG Version: 6.00 Build 0)  -->
<!DOCTYPE svg PUBLIC "-//W3C//DTD SVG 1.1//EN" "http://www.w3.org/Graphics/SVG/1.1/DTD/svg11.dtd">
<svg version="1.1" id="Layer_1" xmlns="http://www.w3.org/2000/svg" xmlns:xlink="http://www.w3.org/1999/xlink" x="0px" y="0px"
	 width="44px" height="46px" viewBox="0 0 44 46" enable-background="new 0 0 44 46" xml:space="preserve">
<g>
	<circle opacity="0.8" fill="#CC5728" cx="22" cy="24.121" r="21.881"/>
	<circle fill="#FFFFFF" cx="22" cy="22" r="21.881"/>
	<path fill="#F26522" d="M44,22c0,12.15-9.85,22-22,22S0,34.15,0,22S9.85,0,22,0S44,9.85,44,22z M37.386,21.504
		C37.164,13.46,31.3,8.777,28.172,7.408c-4.964-2.173-11.268-1.49-14.994,1.625c-0.851,0.711-0.963,1.981-0.254,2.831
		c0.345,0.411,0.829,0.665,1.362,0.712c0.541,0.05,1.058-0.115,1.469-0.459c2.191-1.832,6.722-2.813,10.805-1.027
		c2.468,1.081,6.607,4.474,6.789,10.415l-2.525,0l4.43,7.868l4.771-7.868L37.386,21.504 M6.614,22.495
		c0.222,8.044,6.086,12.728,9.214,14.097c4.964,2.172,11.268,1.49,14.994-1.625c0.851-0.712,0.963-1.982,0.254-2.831
		c-0.345-0.413-0.829-0.665-1.362-0.714c-0.541-0.049-1.058,0.116-1.469,0.461c-2.191,1.831-6.722,2.812-10.805,1.025
		c-2.468-1.08-6.608-4.472-6.789-10.414l2.525-0.001l-4.43-7.868l-4.771,7.868h2.639"/>
</g>
</svg>
