<?xml version="1.0" encoding="utf-8"?>
<!-- Generator: Adobe Illustrator 15.1.0, SVG Export Plug-In . SVG Version: 6.00 Build 0)  -->
<!DOCTYPE svg PUBLIC "-//W3C//DTD SVG 1.1//EN" "http://www.w3.org/Graphics/SVG/1.1/DTD/svg11.dtd">
<svg version="1.1" id="Layer_1" xmlns="http://www.w3.org/2000/svg" xmlns:xlink="http://www.w3.org/1999/xlink" x="0px" y="0px"
	 width="200px" height="200px" viewBox="0 0 200 200" enable-background="new 0 0 200 200" xml:space="preserve">
<g>
	<path fill="none" stroke="#595A5C" stroke-width="4" stroke-miterlimit="10" d="M102.6,146.783
		c-3.549,3.043-18.053,18.053-23.597,23.598c4.594,4.594,17.266,17.266,24.617,24.619c5.07-5.07,18.592-18.592,23.598-23.6
		L102.6,146.783z"/>
	<path fill="none" stroke="#595A5C" stroke-width="4" stroke-miterlimit="10" d="M31.91,69.504
		c17.929-17.641,40.577-40.577,48.414-48.415c13.181-13.181,54.625-31.558,93.406,7.225c34.601,34.6,19.898,76.676,5.197,91.379
		c-13.688,13.688-28.389,28.389-48.415,48.412l-24.714-24.521c19.516-19.395,36.632-36.633,43.599-43.6
		c7.193-7.191,13.813-32.002-0.76-46.576c-13.816-13.813-36.628-15.842-49.049-3.424c-3.468,3.471-23.828,23.83-43.6,43.602
		L31.91,69.504z"/>
	<path fill="none" stroke="#595A5C" stroke-width="4" stroke-miterlimit="10" d="M52.694,96.879
		c-4.499,4.498-17.768,17.768-23.597,23.598c-4.183-4.182-20.026-20.025-24.081-24.082c5.449-5.447,20.81-20.809,23.6-23.598
		L52.694,96.879z"/>
</g>
</svg>
