<?xml version="1.0" encoding="utf-8"?>
<!-- Generator: Adobe Illustrator 15.1.0, SVG Export Plug-In . SVG Version: 6.00 Build 0)  -->
<!DOCTYPE svg PUBLIC "-//W3C//DTD SVG 1.1//EN" "http://www.w3.org/Graphics/SVG/1.1/DTD/svg11.dtd">
<svg version="1.1" id="Layer_1" xmlns="http://www.w3.org/2000/svg" xmlns:xlink="http://www.w3.org/1999/xlink" x="0px" y="0px"
	 width="200px" height="200px" viewBox="0 0 200 200" enable-background="new 0 0 200 200" xml:space="preserve">
<g>
	<rect x="63.967" y="63.239" fill="#818285" width="72.069" height="117.93"/>
	<path fill="none" stroke="#595A5C" stroke-width="4" stroke-miterlimit="10" d="M78.077,11.322v8.293H56.154
		c-4.019,0-7.308,3.282-7.308,7.308v160.77c0,4.01,3.289,7.307,7.308,7.307h87.692c4.018,0,7.307-3.297,7.307-7.307V26.923
		c0-4.025-3.289-7.308-7.307-7.308h-21.924v-8.293c0-3.482-2.847-6.322-6.329-6.322H84.408C80.926,5,78.077,7.84,78.077,11.322z
		 M136.539,34.231v146.154H63.463V34.231H136.539z"/>
</g>
</svg>
