<?xml version="1.0" encoding="utf-8"?>
<!-- Generator: Adobe Illustrator 15.1.0, SVG Export Plug-In . SVG Version: 6.00 Build 0)  -->
<!DOCTYPE svg PUBLIC "-//W3C//DTD SVG 1.1//EN" "http://www.w3.org/Graphics/SVG/1.1/DTD/svg11.dtd">
<svg version="1.1" id="Layer_1" xmlns="http://www.w3.org/2000/svg" xmlns:xlink="http://www.w3.org/1999/xlink" x="0px" y="0px"
	 width="200px" height="200px" viewBox="0 0 200 200" enable-background="new 0 0 200 200" xml:space="preserve">
<g>
	<path fill="#818285" d="M127.143,154.285c0-10.02-5.492-18.674-13.57-23.379V62.68H93.201v3.381h-6.727l-0.01,13.594H100v6.781
		H86.46l-0.01,13.57l6.753,0.006v6.781h-6.758l-0.018,24.113c-8.076,4.705-13.57,13.359-13.57,23.379
		c0,15.002,12.154,27.143,27.143,27.143C114.99,181.428,127.143,169.287,127.143,154.285z"/>
	<path fill="none" stroke="#595A5C" stroke-width="4" stroke-miterlimit="10" d="M100,18.57c7.488,0,13.572,6.071,13.572,13.573
		v98.764c8.078,4.705,13.57,13.359,13.57,23.379c0,15.002-12.152,27.143-27.143,27.143c-14.988,0-27.143-12.141-27.143-27.143
		c0-10.02,5.494-18.674,13.57-23.379v-24.113h6.775v-6.781l-6.775-0.006v-13.57H100v-6.781H86.428V66.061h6.773v-6.764h-6.773
		V45.713H100v-7.172H86.428v-6.398C86.428,24.641,92.498,18.57,100,18.57 M100,5C85.031,5,72.857,17.178,72.857,32.143v91.939
		c-8.516,7.658-13.572,18.633-13.572,30.203C59.285,176.736,77.551,195,100,195c22.451,0,40.715-18.264,40.715-40.715
		c0-11.57-5.057-22.545-13.572-30.203V32.143C127.143,17.178,114.971,5,100,5L100,5z"/>
</g>
</svg>
