<?xml version="1.0" encoding="utf-8"?>
<!-- Generator: Adobe Illustrator 15.1.0, SVG Export Plug-In . SVG Version: 6.00 Build 0)  -->
<!DOCTYPE svg PUBLIC "-//W3C//DTD SVG 1.1//EN" "http://www.w3.org/Graphics/SVG/1.1/DTD/svg11.dtd">
<svg version="1.1" id="Layer_1" xmlns="http://www.w3.org/2000/svg" xmlns:xlink="http://www.w3.org/1999/xlink" x="0px" y="0px"
	 width="200px" height="200px" viewBox="0 0 200 200" enable-background="new 0 0 200 200" xml:space="preserve">
<path fill="none" stroke="#595A5C" stroke-width="4" stroke-miterlimit="10" d="M190.854,101.705
	c0.521-0.962,0.656-2.119,0.18-3.189l-25.321-56.978h0.059c4.038,0,7.306-3.268,7.306-7.307c0-4.041-3.268-7.308-7.306-7.308H34.231
	c-4.04,0-7.308,3.268-7.308,7.308c0,4.039,3.268,7.307,7.308,7.307h0.057L8.968,98.516c-0.479,1.07-0.341,2.227,0.178,3.189
	C6.548,100.735,5,100,5,100c0,20.182,16.357,29.23,36.539,29.23c20.184,0,36.538-9.049,36.538-29.23c0,0-1.548,0.735-4.146,1.705
	c0.521-0.962,0.657-2.119,0.179-3.189L48.79,41.538h43.904v109.616H63.461c-4.018,0-7.306,3.289-7.306,7.308v7.307v7.308h7.306
	h73.078h7.308v-7.308v-7.307c0-4.019-3.29-7.308-7.308-7.308h-29.23V41.538h43.904l-25.322,56.978
	c-0.478,1.07-0.342,2.227,0.18,3.189c-2.599-0.97-4.146-1.705-4.146-1.705c0,20.182,16.356,29.23,36.537,29.23
	c20.182,0,36.539-9.049,36.539-29.23C195,100,193.451,100.735,190.854,101.705z M69.349,103.24
	c-6.429,1.955-15.999,4.068-27.81,4.068c-11.739,0-21.274-2.092-27.704-4.033c0.772-0.356,1.442-0.949,1.813-1.791l25.891-58.253
	l25.893,58.253C67.815,102.355,68.543,102.891,69.349,103.24z M130.766,103.275c0.763-0.356,1.434-0.949,1.805-1.791l25.891-58.253
	l25.891,58.253c0.387,0.871,1.115,1.406,1.92,1.756c-6.43,1.955-16,4.068-27.811,4.068
	C146.722,107.309,137.188,105.217,130.766,103.275z"/>
</svg>
