<?xml version="1.0" encoding="utf-8"?>
<!-- Generator: Adobe Illustrator 15.1.0, SVG Export Plug-In . SVG Version: 6.00 Build 0)  -->
<!DOCTYPE svg PUBLIC "-//W3C//DTD SVG 1.1//EN" "http://www.w3.org/Graphics/SVG/1.1/DTD/svg11.dtd">
<svg version="1.1" id="Layer_1" xmlns="http://www.w3.org/2000/svg" xmlns:xlink="http://www.w3.org/1999/xlink" x="0px" y="0px"
	 width="200px" height="200px" viewBox="0 0 200 200" enable-background="new 0 0 200 200" xml:space="preserve">
<g>
	<polygon fill="#818285" points="74.25,30.906 48.368,30.906 48.368,48.157 65.625,48.157 65.625,56.844 48.368,56.844 
		48.368,74.094 74.25,74.094 74.25,82.688 48.368,82.688 48.368,100 65.625,100 65.625,108.656 48.368,108.656 48.368,125.875 
		74.25,125.875 74.25,134.531 48.368,134.531 48.368,151.875 65.625,151.875 65.625,160.469 48.368,160.469 48.368,177.727 
		152.003,177.727 152.003,29 74.25,29 	"/>
	<path fill="none" stroke="#595A5C" stroke-width="4" stroke-miterlimit="10" d="M31.096,13.625v164.102
		c0,9.496,7.801,17.273,17.272,17.273h103.635c9.498,0,17.274-7.777,17.274-17.273V65.454V13.625h8.535V5h-25.81v172.727H48.368
		v-17.258h17.257v-8.594H48.368v-17.344H74.25v-8.656H48.368v-17.219h17.257V100H48.368V82.688H74.25v-8.594H48.368v-17.25h17.257
		v-8.688H48.368v-17.25H74.25v-8.625H48.368V5l0,0H22.188v8.625H31.096z"/>
</g>
</svg>
