<?xml version="1.0" encoding="utf-8"?>
<!-- Generator: Adobe Illustrator 15.1.0, SVG Export Plug-In . SVG Version: 6.00 Build 0)  -->
<!DOCTYPE svg PUBLIC "-//W3C//DTD SVG 1.1//EN" "http://www.w3.org/Graphics/SVG/1.1/DTD/svg11.dtd">
<svg version="1.1" id="Layer_1" xmlns="http://www.w3.org/2000/svg" xmlns:xlink="http://www.w3.org/1999/xlink" x="0px" y="0px"
	 width="200px" height="200px" viewBox="0 0 200 200" enable-background="new 0 0 200 200" xml:space="preserve">
<polygon fill="none" stroke="#595A5C" stroke-width="4" stroke-miterlimit="10" points="157.827,5 137.173,25.652 153.696,42.174 
	145.434,50.435 128.912,33.914 116.521,46.305 128.912,58.695 120.652,66.957 108.261,54.565 91.739,71.086 108.261,87.608 
	100,95.87 83.479,79.348 71.087,91.739 83.479,104.13 75.217,112.392 62.827,100 50.434,112.392 66.957,128.912 58.696,137.174 
	42.173,120.652 29.783,133.043 42.173,145.434 33.912,153.695 21.521,141.305 5,157.826 42.173,195 195,42.174 "/>
</svg>
