<?xml version="1.0" encoding="utf-8"?>
<!-- Generator: Adobe Illustrator 15.1.0, SVG Export Plug-In . SVG Version: 6.00 Build 0)  -->
<!DOCTYPE svg PUBLIC "-//W3C//DTD SVG 1.1//EN" "http://www.w3.org/Graphics/SVG/1.1/DTD/svg11.dtd">
<svg version="1.1" id="Layer_1" xmlns="http://www.w3.org/2000/svg" xmlns:xlink="http://www.w3.org/1999/xlink" x="0px" y="0px"
	 width="200px" height="200px" viewBox="0 0 200 200" enable-background="new 0 0 200 200" xml:space="preserve">
<g>
	<g>
		<path fill="none" stroke="#595A5C" stroke-width="4" stroke-miterlimit="10" d="M100.001,28.75
			c39.288,0,71.249,31.96,71.249,71.249c0,39.291-31.961,71.251-71.249,71.251c-39.283,0-71.251-31.96-71.251-71.251
			C28.75,60.71,60.718,28.75,100.001,28.75 M100.001,5C47.537,5,5,47.535,5,99.999C5,152.465,47.537,195,100.001,195
			C152.463,195,195,152.465,195,99.999C195,47.535,152.463,5,100.001,5L100.001,5z"/>
	</g>
	<g>
		<path fill="none" stroke="#595A5C" stroke-width="4" stroke-miterlimit="10" d="M123.75,135.626c-3.031,0-6.075-1.16-8.396-3.48
			l-23.734-23.734c-2.148-2.147-3.479-5.103-3.494-8.372v-0.008c0-0.016,0-0.022,0-0.032V52.5c0-6.556,5.318-11.875,11.876-11.875
			c6.563,0,11.874,5.319,11.874,11.875v42.583l20.272,20.271c4.638,4.639,4.638,12.152,0,16.791
			C129.826,134.466,126.796,135.626,123.75,135.626L123.75,135.626z"/>
	</g>
</g>
</svg>
