<?xml version="1.0" encoding="utf-8"?>
<!-- Generator: Adobe Illustrator 15.1.0, SVG Export Plug-In . SVG Version: 6.00 Build 0)  -->
<!DOCTYPE svg PUBLIC "-//W3C//DTD SVG 1.1//EN" "http://www.w3.org/Graphics/SVG/1.1/DTD/svg11.dtd">
<svg version="1.1" id="Layer_1" xmlns="http://www.w3.org/2000/svg" xmlns:xlink="http://www.w3.org/1999/xlink" x="0px" y="0px"
	 width="200px" height="200px" viewBox="0 0 200 200" enable-background="new 0 0 200 200" xml:space="preserve">
<path fill="none" stroke="#595A5C" stroke-width="4" stroke-miterlimit="10" d="M135.057,31.494L5,159.408v9.098h190v-24.084
	c0,0-62.084,0-68.506,0c-0.357-8.741-1.785-15.609-1.785-15.609l-14.986,1.248c0,0,0.98,4.105,1.605,14.361
	c-4.994,0-59.23,0-59.23,0s36.953-36.021,42.104-41.566c2.498,2.587,4.818,5.441,4.818,5.441l13.469-7.136
	c0,0-2.23-3.569-7.672-9.278c6.154-7.136,55.93-60.39,55.93-60.39H135.057z"/>
</svg>
