<?xml version="1.0" encoding="utf-8"?>
<!-- Generator: Adobe Illustrator 15.1.0, SVG Export Plug-In . SVG Version: 6.00 Build 0)  -->
<!DOCTYPE svg PUBLIC "-//W3C//DTD SVG 1.1//EN" "http://www.w3.org/Graphics/SVG/1.1/DTD/svg11.dtd">
<svg version="1.1" id="Layer_1" xmlns="http://www.w3.org/2000/svg" xmlns:xlink="http://www.w3.org/1999/xlink" x="0px" y="0px"
	 width="200px" height="200px" viewBox="0 0 200 200" enable-background="new 0 0 200 200" xml:space="preserve">
<path fill="none" stroke="#595A5C" stroke-width="4" stroke-miterlimit="10" d="M185.437,126.645
	c-3.417-7.645-2.221-15.523-1.046-23.143c1.817-11.785,3.986-26.221-14.778-34.668c1.255-4.5,1.15-9.662-2.64-11.49l-22.332-10.75
	c-4.873-2.352-17.594-1.848-19.09,1.242c-1.484,3.092-5.587,9.533,4.84,11.93c10.428,2.406,20.131,14.617,20.131,14.617
	c3.515,3.402,7.526,5.443,10.689,5.5c12.505,4.398,11.813,9.533,9.963,21.586c-1.338,8.645-2.979,19.398,2.045,30.637
	c6.789,15.145,7.188,24.045,1.346,29.768c-7.173,7.051-16.855,4.809-22.957,0.758c-8.246-5.475-8.39-15.596-7.633-31.617
	c0.418-9.061,0.863-18.443-1.816-26.441c-5.938-17.73-24.174-17.953-25.011-17.953l0,0l-8.101-0.008V26.407
	c0-3.679-3.006-6.691-6.691-6.691H22.071c-3.671,0-6.691,3.013-6.691,6.691v140.498H8.691c0,0-6.691,0-6.691,6.689
	c0,6.691,0,6.691,0,6.691h6.691h6.688h6.691h80.285h6.691h6.689h6.691v-6.691c0,0,0-6.689-6.691-6.689h-6.689v-66.91l8.035,0.006
	c0.968,0.02,9.579,0.424,12.389,8.822c1.894,5.631,1.516,13.365,1.145,21.559c-0.753,15.629-1.576,33.334,13.582,43.396
	c6.096,4.039,12.714,6.029,19.144,6.029c7.618,0,14.923-2.814,20.601-8.381C198.915,156.75,189.128,134.877,185.437,126.645z
	 M154.979,71.162c-1.837,0-3.346-1.498-3.346-3.348c0-1.848,1.509-3.344,3.346-3.344c1.854,0,3.346,1.496,3.346,3.344
	C158.324,69.664,156.832,71.162,154.979,71.162z M28.762,39.787c0-3.68,3.018-6.689,6.689-6.689h53.525
	c3.684,0,6.688,3.01,6.688,6.689V79.93c0,3.678-3.005,6.689-6.688,6.689H35.451c-3.671,0-6.689-3.012-6.689-6.689V39.787z"/>
</svg>
