<?xml version="1.0" encoding="utf-8"?>
<!-- Generator: Adobe Illustrator 15.1.0, SVG Export Plug-In . SVG Version: 6.00 Build 0)  -->
<!DOCTYPE svg PUBLIC "-//W3C//DTD SVG 1.1//EN" "http://www.w3.org/Graphics/SVG/1.1/DTD/svg11.dtd">
<svg version="1.1" id="Layer_1" xmlns="http://www.w3.org/2000/svg" xmlns:xlink="http://www.w3.org/1999/xlink" x="0px" y="0px"
	 width="200px" height="200px" viewBox="0 0 200 200" enable-background="new 0 0 200 200" xml:space="preserve">
<g>
	<path fill="none" stroke="#595A5C" stroke-width="4" stroke-miterlimit="10" d="M69.854,131.38c0,10.638-8.79,19.269-19.621,19.269
		c-10.841,0-19.614-8.631-19.614-19.269c0-10.647,8.773-19.271,19.614-19.271C61.064,112.109,69.854,120.732,69.854,131.38"/>
	<path fill="none" stroke="#595A5C" stroke-width="4" stroke-miterlimit="10" d="M160.97,131.38c0,10.638-8.78,19.269-19.621,19.269
		c-10.836,0-19.625-8.631-19.625-19.269c0-10.647,8.789-19.271,19.625-19.271C152.189,112.109,160.97,120.732,160.97,131.38"/>
	<path fill="none" stroke="#595A5C" stroke-width="4" stroke-miterlimit="10" d="M192.772,94.233
		c-3.485-3.431-23.849-4.398-23.849-4.398s-10.939-40.484-17.905-40.484H68.551c-6.953,0-22.852,38.042-22.852,38.042
		s-35.531,13.397-38.769,16.581c-3.227,3.172-1.435,28.113-1.435,28.113l20.329,0.188c0,0,0-24.881,23.843-24.881
		c23.859,0,24.843,23.896,24.843,23.896h42.226c0,0,0.506-23.413,24.365-23.413c23.842,0,25.337,23.413,25.337,23.413l28.181,0.797
		C194.619,132.088,196.246,97.63,192.772,94.233 M103.322,85.438H58.117c0,0,7.455-26.823,13.402-26.823h31.803V85.438z
		 M112.284,85.438V58.615h36.761c5.954,0,8.444,26.823,8.444,26.823H112.284z"/>
</g>
</svg>
